<svg xmlns="http://www.w3.org/2000/svg" viewBox="0 0 200 200" width="200" height="200" role="img" aria-label="Streaming Multiprocessor">
  <defs>
    <linearGradient id="sm-bg" x1="0" y1="0" x2="1" y2="1">
      <stop offset="0" stop-color="#2E2E2E"/>
      <stop offset="1" stop-color="#161616"/>
    </linearGradient>
    <linearGradient id="sm-indigo" x1="0" y1="0" x2="1" y2="1">
      <stop offset="0" stop-color="#E6C45C"/>
      <stop offset="1" stop-color="#DAA520"/>
    </linearGradient>
  </defs>
  <rect width="200" height="200" rx="12" fill="url(#sm-bg)"/>
  <rect x="0.5" y="0.5" width="199" height="199" rx="12" fill="none" stroke="#3D3D3D"/>

  <!-- SM block with CUDA cores -->
  <rect x="34" y="34" width="132" height="92" rx="8" fill="#232323" stroke="#DAA520" opacity="0.9"/>
  <g fill="#DAA520" opacity="0.85">
    <rect x="46" y="46" width="14" height="14" rx="2"/>
    <rect x="64" y="46" width="14" height="14" rx="2"/>
    <rect x="82" y="46" width="14" height="14" rx="2"/>
    <rect x="100" y="46" width="14" height="14" rx="2"/>
    <rect x="118" y="46" width="14" height="14" rx="2"/>
    <rect x="136" y="46" width="14" height="14" rx="2"/>
  </g>
  <g fill="#FF6F61">
    <rect x="46" y="64" width="14" height="14" rx="2"/>
    <rect x="82" y="64" width="14" height="14" rx="2"/>
    <rect x="118" y="64" width="14" height="14" rx="2"/>
  </g>
  <g fill="#3D3D3D">
    <rect x="64" y="64" width="14" height="14" rx="2"/>
    <rect x="100" y="64" width="14" height="14" rx="2"/>
    <rect x="136" y="64" width="14" height="14" rx="2"/>
  </g>
  <!-- warp scheduler bar -->
  <rect x="46" y="92" width="104" height="10" rx="3" fill="#3FB68B" opacity="0.55"/>

  <text x="100" y="150" text-anchor="middle" font-family="'Space Grotesk', system-ui, sans-serif" font-size="30" font-weight="700" fill="url(#sm-indigo)">SM</text>
  <text x="100" y="170" text-anchor="middle" font-family="'IBM Plex Mono', monospace" font-size="9.5" fill="#B3A795" letter-spacing="2">STREAMING MULTIPROCESSOR</text>
</svg>
