<svg xmlns="http://www.w3.org/2000/svg" viewBox="0 0 200 200" width="200" height="200" role="img" aria-label="CUDA and system design">
  <defs>
    <linearGradient id="b-bg" x1="0" y1="0" x2="1" y2="1">
      <stop offset="0" stop-color="#292929"/>
      <stop offset="1" stop-color="#141414"/>
    </linearGradient>
    <linearGradient id="b-amber" x1="0" y1="0" x2="1" y2="1">
      <stop offset="0" stop-color="#FF8A65"/>
      <stop offset="1" stop-color="#FF5722"/>
    </linearGradient>
  </defs>
  <rect width="200" height="200" rx="12" fill="url(#b-bg)"/>
  <rect x="0.5" y="0.5" width="199" height="199" rx="12" fill="none" stroke="#3A3A3A"/>

  <!-- GPU grid of threads -->
  <g>
    <!-- 6x6 thread grid -->
    <g fill="#7E57C2" opacity="0.85">
      <rect x="40" y="40" width="16" height="16" rx="3"/>
      <rect x="62" y="40" width="16" height="16" rx="3"/>
      <rect x="84" y="40" width="16" height="16" rx="3"/>
      <rect x="106" y="40" width="16" height="16" rx="3"/>
      <rect x="128" y="40" width="16" height="16" rx="3"/>
    </g>
    <g fill="#FF5722">
      <rect x="40" y="62" width="16" height="16" rx="3"/>
      <rect x="84" y="62" width="16" height="16" rx="3"/>
      <rect x="128" y="62" width="16" height="16" rx="3"/>
    </g>
    <g fill="#3FB68B" opacity="0.9">
      <rect x="62" y="62" width="16" height="16" rx="3"/>
      <rect x="106" y="62" width="16" height="16" rx="3"/>
    </g>
    <g fill="#3A3A3A">
      <rect x="40" y="84" width="16" height="16" rx="3"/>
      <rect x="62" y="84" width="16" height="16" rx="3"/>
      <rect x="84" y="84" width="16" height="16" rx="3"/>
      <rect x="106" y="84" width="16" height="16" rx="3"/>
      <rect x="128" y="84" width="16" height="16" rx="3"/>
    </g>
  </g>

  <!-- label -->
  <text x="100" y="138" text-anchor="middle" font-family="'Space Grotesk', system-ui, sans-serif" font-size="26" font-weight="700" fill="url(#b-amber)">CUDA</text>
  <text x="100" y="160" text-anchor="middle" font-family="'IBM Plex Mono', monospace" font-size="11" fill="#ADADB5" letter-spacing="2">SYSTEM DESIGN</text>
</svg>
