<svg xmlns="http://www.w3.org/2000/svg" viewBox="0 0 1200 630" width="1200" height="630" role="img" aria-label="Manas Bisht — CTO & Founding Engineer">
  <defs>
    <linearGradient id="og-bg" x1="0" y1="0" x2="1" y2="1">
      <stop offset="0" stop-color="#0C111B"/>
      <stop offset="1" stop-color="#090B11"/>
    </linearGradient>
    <radialGradient id="og-amber" cx="0.12" cy="0.0" r="0.8">
      <stop offset="0" stop-color="#F5A623" stop-opacity="0.20"/>
      <stop offset="1" stop-color="#F5A623" stop-opacity="0"/>
    </radialGradient>
    <radialGradient id="og-indigo" cx="1" cy="0" r="0.8">
      <stop offset="0" stop-color="#6E7BFF" stop-opacity="0.18"/>
      <stop offset="1" stop-color="#6E7BFF" stop-opacity="0"/>
    </radialGradient>
    <linearGradient id="og-accent" x1="0" y1="0" x2="1" y2="0">
      <stop offset="0" stop-color="#FFC15E"/>
      <stop offset="1" stop-color="#F5A623"/>
    </linearGradient>
  </defs>

  <rect width="1200" height="630" fill="url(#og-bg)"/>
  <rect width="1200" height="630" fill="url(#og-amber)"/>
  <rect width="1200" height="630" fill="url(#og-indigo)"/>

  <!-- faint grid -->
  <g stroke="#283143" stroke-width="1" opacity="0.35">
    <line x1="0" y1="157" x2="1200" y2="157"/>
    <line x1="0" y1="472" x2="1200" y2="472"/>
    <line x1="300" y1="0" x2="300" y2="630"/>
    <line x1="900" y1="0" x2="900" y2="630"/>
  </g>

  <!-- favicon-style mark -->
  <g transform="translate(80,80)">
    <rect width="84" height="84" rx="18" fill="#10141D" stroke="#283143"/>
    <path d="M24 27 L41 44 L24 61" fill="none" stroke="#F5A623" stroke-width="6.5" stroke-linecap="round" stroke-linejoin="round"/>
    <rect x="48" y="54" width="22" height="7" rx="3.5" fill="#F5A623"/>
  </g>

  <!-- prompt line -->
  <text x="82" y="320" font-family="'IBM Plex Mono', ui-monospace, monospace" font-size="26" fill="#F5A623">manas@immunefiles:~$ whoami</text>

  <!-- headline -->
  <text x="80" y="406" font-family="'Space Grotesk', system-ui, sans-serif" font-size="76" font-weight="700" fill="#ECEFF6">Manas Bisht</text>
  <text x="80" y="476" font-family="'Space Grotesk', system-ui, sans-serif" font-size="40" font-weight="600" fill="#ECEFF6">CTO &amp; Founding Engineer <tspan fill="#F5A623">· Immunefiles</tspan></text>

  <!-- subline -->
  <text x="82" y="540" font-family="'IBM Plex Mono', ui-monospace, monospace" font-size="24" fill="#909AAD">Secure, AI-powered enterprise software · Noida, India</text>

  <!-- accent rule -->
  <rect x="82" y="566" width="220" height="4" rx="2" fill="url(#og-accent)"/>
</svg>
