<svg xmlns="http://www.w3.org/2000/svg" viewBox="0 0 480 560" width="480" height="560" role="img" aria-label="Manas Bisht portrait">
  <defs>
    <linearGradient id="bg" x1="0" y1="0" x2="1" y2="1">
      <stop offset="0" stop-color="#11161F"/>
      <stop offset="1" stop-color="#0A0D14"/>
    </linearGradient>
    <linearGradient id="amber" x1="0" y1="0" x2="1" y2="1">
      <stop offset="0" stop-color="#FFC15E"/>
      <stop offset="1" stop-color="#F5A623"/>
    </linearGradient>
    <linearGradient id="indigo" x1="0" y1="1" x2="1" y2="0">
      <stop offset="0" stop-color="#6E7BFF"/>
      <stop offset="1" stop-color="#9AA4FF"/>
    </linearGradient>
    <radialGradient id="glow" cx="0.3" cy="0.25" r="0.9">
      <stop offset="0" stop-color="#F5A623" stop-opacity="0.22"/>
      <stop offset="1" stop-color="#F5A623" stop-opacity="0"/>
    </radialGradient>
  </defs>

  <rect width="480" height="560" rx="16" fill="url(#bg)"/>
  <rect width="480" height="560" rx="16" fill="url(#glow)"/>

  <!-- faint grid -->
  <g stroke="#283143" stroke-width="1" opacity="0.5">
    <line x1="0" y1="140" x2="480" y2="140"/>
    <line x1="0" y1="280" x2="480" y2="280"/>
    <line x1="0" y1="420" x2="480" y2="420"/>
    <line x1="120" y1="0" x2="120" y2="560"/>
    <line x1="240" y1="0" x2="240" y2="560"/>
    <line x1="360" y1="0" x2="360" y2="560"/>
  </g>

  <!-- abstract head/shoulders silhouette -->
  <g>
    <circle cx="240" cy="222" r="92" fill="none" stroke="url(#indigo)" stroke-width="2" opacity="0.55"/>
    <circle cx="240" cy="210" r="64" fill="#181E2A"/>
    <circle cx="240" cy="210" r="64" fill="none" stroke="url(#amber)" stroke-width="2.5"/>
    <path d="M150 420 Q150 330 240 330 Q330 330 330 420 Z" fill="#181E2A" stroke="url(#indigo)" stroke-width="2" opacity="0.9"/>
    <path d="M150 420 Q150 330 240 330 Q330 330 330 420" fill="none" stroke="url(#amber)" stroke-width="2.5" opacity="0.7"/>
  </g>

  <!-- monogram -->
  <text x="240" y="232" text-anchor="middle" font-family="'Space Grotesk', system-ui, sans-serif" font-size="58" font-weight="700" fill="#ECEFF6" letter-spacing="2">MB</text>

  <!-- terminal tag -->
  <g font-family="'IBM Plex Mono', ui-monospace, monospace" font-size="15" fill="#909AAD">
    <text x="36" y="494">manas@immunefiles:~$</text>
    <text x="36" y="520" fill="#F5A623">whoami</text>
    <rect x="118" y="507" width="9" height="16" fill="#F5A623"/>
  </g>

  <!-- corner accents -->
  <path d="M24 40 V24 H40" fill="none" stroke="#6E7BFF" stroke-width="2"/>
  <path d="M456 520 V536 H440" fill="none" stroke="#F5A623" stroke-width="2"/>
</svg>
