<svg xmlns="http://www.w3.org/2000/svg" viewBox="0 0 640 320" width="640" height="320" role="img" aria-label="TinyVGG image classification visualization">
  <defs>
    <linearGradient id="t-bg" x1="0" y1="0" x2="1" y2="1">
      <stop offset="0" stop-color="#232323"/>
      <stop offset="1" stop-color="#161616"/>
    </linearGradient>
    <linearGradient id="t-amber" x1="0" y1="0" x2="1" y2="0">
      <stop offset="0" stop-color="#FF6F61"/>
      <stop offset="1" stop-color="#FF8F7F"/>
    </linearGradient>
  </defs>
  <rect width="640" height="320" fill="url(#t-bg)"/>
  <rect x="0.5" y="0.5" width="639" height="319" fill="none" stroke="#3D3D3D"/>

  <!-- input: pixel garment (t-shirt) on a grid -->
  <g transform="translate(48,70)">
    <rect x="-8" y="-8" width="176" height="176" rx="8" fill="#2E2E2E" stroke="#3D3D3D"/>
    <g>
      <rect x="40" y="16" width="80" height="20" fill="#4A5468"/>
      <rect x="16" y="28" width="24" height="48" fill="#4A5468"/>
      <rect x="120" y="28" width="24" height="48" fill="#4A5468"/>
      <rect x="40" y="36" width="80" height="100" fill="#5C6A86"/>
      <rect x="40" y="16" width="80" height="20" fill="#DAA520" opacity="0.25"/>
    </g>
    <text x="80" y="190" text-anchor="middle" font-family="'IBM Plex Mono', monospace" font-size="13" fill="#B3A795">28×28 input</text>
  </g>

  <!-- conv blocks -->
  <g>
    <rect x="270" y="96" width="34" height="128" rx="4" fill="#2E2E2E" stroke="#DAA520" opacity="0.9"/>
    <rect x="312" y="110" width="28" height="100" rx="4" fill="#2E2E2E" stroke="#DAA520" opacity="0.8"/>
    <rect x="348" y="124" width="22" height="72" rx="4" fill="#2E2E2E" stroke="#DAA520" opacity="0.7"/>
    <text x="320" y="250" text-anchor="middle" font-family="'IBM Plex Mono', monospace" font-size="13" fill="#B3A795">TinyVGG conv</text>
  </g>

  <!-- arrow -->
  <g stroke="#5C6678" stroke-width="2" fill="none">
    <path d="M226 160 H262"/>
    <path d="M256 154 L264 160 L256 166"/>
    <path d="M378 160 H410"/>
    <path d="M404 154 L412 160 L404 166"/>
  </g>

  <!-- output class bars -->
  <g transform="translate(430,86)" font-family="'IBM Plex Mono', monospace" font-size="12" fill="#B3A795">
    <rect x="0" y="0" width="150" height="20" rx="4" fill="#2E2E2E"/>
    <rect x="0" y="0" width="138" height="20" rx="4" fill="url(#t-amber)"/>
    <text x="6" y="14" fill="#161616" font-weight="600">T-shirt 0.94</text>

    <rect x="0" y="30" width="150" height="16" rx="4" fill="#2E2E2E"/>
    <rect x="0" y="30" width="42" height="16" rx="4" fill="#4D4D4D"/>
    <text x="60" y="42">Pullover</text>

    <rect x="0" y="54" width="150" height="16" rx="4" fill="#2E2E2E"/>
    <rect x="0" y="54" width="26" height="16" rx="4" fill="#4D4D4D"/>
    <text x="44" y="66">Coat</text>

    <rect x="0" y="78" width="150" height="16" rx="4" fill="#2E2E2E"/>
    <rect x="0" y="78" width="16" height="16" rx="4" fill="#4D4D4D"/>
    <text x="34" y="90">Shirt</text>
    <text x="0" y="124" fill="#3FB68B">softmax → argmax</text>
  </g>

  <!-- label -->
  <text x="24" y="36" font-family="'IBM Plex Mono', monospace" font-size="13" fill="#FF6F61">FashionMNIST · PyTorch</text>
</svg>
