<svg xmlns="http://www.w3.org/2000/svg" viewBox="0 0 640 320" width="640" height="320" role="img" aria-label="Monet style transfer with CycleGAN">
  <defs>
    <linearGradient id="c-bg" x1="0" y1="0" x2="1" y2="1">
      <stop offset="0" stop-color="#1F1F1F"/>
      <stop offset="1" stop-color="#141414"/>
    </linearGradient>
    <filter id="soft" x="-30%" y="-30%" width="160%" height="160%">
      <feGaussianBlur stdDeviation="10"/>
    </filter>
  </defs>
  <rect width="640" height="320" fill="url(#c-bg)"/>
  <rect x="0.5" y="0.5" width="639" height="319" fill="none" stroke="#3A3A3A"/>

  <!-- left: photo (sharp blocks) -->
  <g transform="translate(40,70)">
    <rect x="0" y="0" width="180" height="180" rx="8" fill="#292929" stroke="#3A3A3A"/>
    <rect x="0" y="100" width="180" height="80" fill="#2E6B5E"/>
    <rect x="0" y="0" width="180" height="100" fill="#3B5A7A"/>
    <circle cx="48" cy="42" r="20" fill="#C9D4E6"/>
    <rect x="110" y="70" width="50" height="30" fill="#7C8AA3"/>
    <text x="90" y="206" text-anchor="middle" font-family="'IBM Plex Mono', monospace" font-size="13" fill="#ADADB5">photo</text>
  </g>

  <!-- CycleGAN cycle arrows -->
  <g transform="translate(250,160)" font-family="'IBM Plex Mono', monospace" font-size="12">
    <path d="M0 -18 C 50 -40, 90 -40, 140 -18" fill="none" stroke="#FF5722" stroke-width="2"/>
    <path d="M134 -26 L142 -17 L132 -15" fill="none" stroke="#FF5722" stroke-width="2"/>
    <path d="M140 18 C 90 40, 50 40, 0 18" fill="none" stroke="#7E57C2" stroke-width="2"/>
    <path d="M6 26 L-2 17 L8 15" fill="none" stroke="#7E57C2" stroke-width="2"/>
    <text x="70" y="-44" text-anchor="middle" fill="#FF5722">G: photo→monet</text>
    <text x="70" y="58" text-anchor="middle" fill="#7E57C2">F: monet→photo</text>
    <text x="70" y="6" text-anchor="middle" fill="#ADADB5">CycleGAN</text>
  </g>

  <!-- right: monet painting (soft impressionist blobs) -->
  <g transform="translate(420,70)">
    <clipPath id="frame"><rect x="0" y="0" width="180" height="180" rx="8"/></clipPath>
    <rect x="0" y="0" width="180" height="180" rx="8" fill="#292929"/>
    <g clip-path="url(#frame)" filter="url(#soft)">
      <circle cx="40" cy="40" r="40" fill="#7FA6C9"/>
      <circle cx="120" cy="30" r="46" fill="#9DBD7E"/>
      <circle cx="150" cy="70" r="40" fill="#C7D08A"/>
      <circle cx="60" cy="120" r="50" fill="#4F8C7B"/>
      <circle cx="130" cy="150" r="48" fill="#6E7BAF"/>
      <circle cx="95" cy="95" r="34" fill="#E8C98A"/>
      <circle cx="30" cy="160" r="30" fill="#B57FA6"/>
    </g>
    <rect x="0.5" y="0.5" width="179" height="179" rx="8" fill="none" stroke="#FF5722" stroke-width="1.5" opacity="0.7"/>
    <text x="90" y="206" text-anchor="middle" font-family="'IBM Plex Mono', monospace" font-size="13" fill="#ADADB5">Monet style</text>
  </g>

  <!-- label -->
  <text x="24" y="36" font-family="'IBM Plex Mono', monospace" font-size="13" fill="#FF5722">unpaired translation · PyTorch</text>
</svg>
